# xmcd
#
# Track frame offsets:
#	150
#	14122
#	23303
#	33348
#	45246
#	57750
#	69523
#	78362
#	92816
#	100650
#	109689
#	131153
#	146403
#
# Disc length: 2153 seconds
#
# Revision: 0
# Processed by: cddbd v1.4PL0 Copyright (c) Steve Scherf et al.
# Submitted via: MusicWizard 6.0.0
#
DISCID=9d08670d
DTITLE=Johnny Cash - Understand Your Man (Extended Version)
DYEAR=2002
DGENRE=Country
TTITLE0=Orange Blossom Special
TTITLE1=A Certain Kinda Hurtin'
TTITLE2=Time And Time Again
TTITLE3=Still In Town
TTITLE4=Understand Your Man
TTITLE5=I'd Still Be There
TTITLE6=I Want To Go Home
TTITLE7=Sing A Traveling Song  (With June Carter)
TTITLE8=I Got Stripes
TTITLE9=A Little At A Time  (With Gordon Terry)
TTITLE10=San Quentin
TTITLE11=A Boy Named Sue
TTITLE12=He Turned The Water Into Wine
EXTD=(c) Columbia Special Products
EXTT0=
EXTT1=
EXTT2=
EXTT3=
EXTT4=
EXTT5=
EXTT6=
EXTT7=
EXTT8=
EXTT9=
EXTT10=
EXTT11=
EXTT12=
PLAYORDER=
